<svg viewBox="0 0 360 360" xmlns="http://www.w3.org/2000/svg"><path d="m118.49 141.18c8-3 16.41-4.46 24.79-5.93 16.54-2.92 33.31-5.84 50-4.36 34.69 3.08 66.46 26.19 81.76 57.47a114 114 0 0 1 8 22c3.53 13.85 4.59 28.2 5.63 42.46.35 4.83.7 9.75-.43 14.47-2.2 9.28-9.69 16.3-17.26 22.12-2.75 2.11-5.6 4.19-7.64 7-4.61 6.35-4.17 15-6.91 22.34-4.42 11.9-16.39 19-27.52 25.1-6.52 3.59-13.2 7.24-20.53 8.53-17.13 3-34.37-7.31-51.61-5-7.48 1-14.5 4.34-22 5.42s-16.31-.89-19.83-7.57c-1.24-2.35-1.68-5-2.59-7.52-1.88-5.15-5.68-9.33-8.64-13.94-7.73-12-10-27.47-19.88-37.79-3.61-3.77-8.08-6.65-11.58-10.51-10.88-12-10.21-30.35-7.13-46.24s8.37-30.72 14.16-45.78c2-5.13 1.92-10.39 4.92-15.15a66.57 66.57 0 0 1 13.91-15.3 70.39 70.39 0 0 1 20.38-11.82z" fill="#e9dcb0"/><g fill="#a79984"><ellipse cx="270.24" cy="183.05" rx="5.97" ry="10.35" transform="matrix(.9323238 -.36162457 .36162457 .9323238 -47.91 110.14)"/><ellipse cx="218.71" cy="167.33" rx="2.65" ry="4.12"/><ellipse cx="79.36" cy="184.35" rx="16.04" ry="6.65" transform="matrix(.34136403 -.93993117 .93993117 .34136403 -121.01 196)"/><ellipse cx="129.76" cy="176.82" rx="21.46" ry="10.37" transform="matrix(.70710678 -.70710678 .70710678 .70710678 -87.03 143.55)"/><circle cx="213.42" cy="226.19" r="18.84"/><ellipse cx="225.59" cy="283.79" rx="14.52" ry="6.24" transform="matrix(.22103788 -.97526522 .97526522 .22103788 -101.05 441.07)"/><ellipse cx="256.53" cy="308.17" rx="17.51" ry="9.56" transform="matrix(.37913318 -.92534212 .92534212 .37913318 -125.89 428.73)"/><ellipse cx="184.64" cy="324.04" rx="8.47" ry="10.74"/><ellipse cx="124.98" cy="267.48" rx="12.8" ry="24.28" transform="matrix(.89423237 -.44760302 .44760302 .89423237 -106.5 84.22)"/><ellipse cx="104.82" cy="317.71" rx="8.55" ry="16.55" transform="matrix(.89423237 -.44760302 .44760302 .89423237 -131.11 80.51)"/><path d="m147.81 36.49a24.27 24.27 0 1 1 48.54 0"/></g><path d="m143 11.55a32.1 32.1 0 0 0 -.15 5.37 3.1 3.1 0 0 0 .29 1.32c.58 1 2 1.09 3.17 1a1.74 1.74 0 0 0 .75-.15c.67-.34.66-1.29.56-2a1.24 1.24 0 0 0 -.28-.74c-.48-.45-1.24.12-1.57.69a7.49 7.49 0 0 0 2.33 10.05.88.88 0 0 0 .63.21c.36-.06.53-.48.62-.84a3.09 3.09 0 0 0 .16-1.27 1 1 0 0 0 -.79-.9 1.24 1.24 0 0 0 -.91.31 4.41 4.41 0 0 0 -1.37 4.29 13.1 13.1 0 0 0 1.93 4.28l1.6 2.63" fill="none" stroke="#32302f" stroke-miterlimit="10" stroke-width=".93"/><rect fill="#989619" height="13.05" rx="3.5" width="9.1" x="191.8" y="30.46"/><rect fill="#989619" height="13.05" rx="3.5" width="9.1" x="144.3" y="30.46"/><path d="m167.86 16.38a22.46 22.46 0 0 1 21.85 9 23.43 23.43 0 0 1 1.54 23.7 9.34 9.34 0 0 1 -2.65 3.41c-1.84 1.34-2.68 1.45-4.72 2.49-5.43 2.78-12.15 1.65-17.4 1.86-2.29.09-6.37-1.15-8.55-1.86-4-1.3-5.2-5.93-6.35-10-3.52-12.38 2.92-26.16 16.28-28.6z" fill="#32302f"/><circle cx="144.3" cy="10.05" fill="#d55c0d" r="4.67"/><path d="m154.22 33.78c-.38 1.47-1.09 5 .21 7.4a.89.89 0 0 0 .83.43l1.85-.1a.92.92 0 0 0 .87-.95l-.28-6.63a.91.91 0 0 0 -.94-.87h-1.67a.93.93 0 0 0 -.87.72z" fill="#e9dcb0"/><path d="m155.08 43.87c.43 1.81 1.42 5.49 2.56 6.58a18.75 18.75 0 0 0 0-7.94l-1.81.22a.93.93 0 0 0 -.75 1.14z" fill="#e9dcb0"/><path d="m171.37 96.55s-1.17 21.68 12.17 40.66c0 0 16.64-13.78 15.13-40.66z" fill="#a79984"/><path d="m173 96.55s1.17 21.68-12.17 40.66c0 0-16.64-13.78-15.14-40.66z" fill="#a79984"/><path d="m162.19 71.45s-16.65 11.84-36 15c0 0 5.32-15.5 27-28.7z" fill="#a79984"/><path d="m182.26 71.45s16.66 11.84 36 15c0 0-5.33-15.5-27-28.7z" fill="#a79984"/><path d="m162.52 54.39h19.41a16.87 16.87 0 0 1 16.87 16.87v27.43a3.34 3.34 0 0 1 -3.34 3.34h-46.46a3.34 3.34 0 0 1 -3.34-3.34v-27.43a16.87 16.87 0 0 1 16.86-16.87z" fill="#a79984"/><rect fill="#989619" height="13.46" rx="1.37" transform="matrix(.87 -.5 .5 .87 -20.72 79.11)" width="3.58" x="135.46" y="71.48"/><rect fill="#32302f" height="64.86" rx="1.79" transform="matrix(.64211887 -.76660509 .76660509 .64211887 1.97 161.95)" width="3.58" x="172.64" y="46.44"/><rect fill="#32302f" height="64.86" rx="1.79" transform="matrix(-.64211887 -.76660509 .76660509 -.64211887 217.63 257.62)" width="3.58" x="167.16" y="45.58"/><rect fill="#d55c0d" height="3.9" rx="1.95" width="56.07" x="144.19" y="98.55"/><rect fill="#d55c0d" height="6.79" rx="2.85" width="40.93" x="150.99" y="52.6"/><rect fill="#989619" height="13.46" rx="1.37" transform="matrix(-.8660254 -.5 .5 -.8660254 347.53 249.54)" width="3.58" x="205.41" y="71.48"/><rect fill="#989619" height="21.43" rx="1.73" transform="matrix(0 -1 1 0 36.71 281.9)" width="3.58" x="157.51" y="111.88"/><rect fill="#989619" height="21.43" rx="1.73" transform="matrix(0 -1 1 0 62.46 307.65)" width="3.58" x="183.27" y="111.88"/><rect fill="#e9dcb0" height="25.39" rx="3.55" width="29.61" x="156.37" y="63.45"/><circle cx="171.11" cy="82.36" fill="#32302f" r="2.51"/><circle cx="178.34" cy="82.36" fill="#32302f" r="2.44"/><circle cx="179.6" cy="72.38" fill="#989619" r="4.62"/><rect fill="#d55c0d" height="6.06" rx="1.97" width="13.56" x="158.16" y="68.93"/><rect fill="#989619" height="3.03" rx="1.12" transform="matrix(0 1 -1 0 245.91 -81.54)" width="8.76" x="159.35" y="80.67"/><ellipse cx="154.98" cy="217.5" fill="#a79984" rx="4.35" ry="6.03" transform="matrix(.93 -.36 .36 .93 -68.18 70.78)"/><path d="m284.73 36.23-69.16-30.17-.02 56.75z" fill="#d55c0d" stroke="#d55c0d" stroke-miterlimit="10" stroke-width="1.08"/><path d="m249.08 38.79a15 15 0 1 1 -10.91-18.18 15 15 0 0 1 10.91 18.18z" fill="#fff"/><path d="m241.15 33c.3-2-1.22-3.07-3.3-3.78l.68-2.71-1.65-.41-.65 2.64-1.32-.31.66-2.65-1.64-.41-.68 2.7-1.05-.25-2.27-.57-.43 1.75s1.22.28 1.19.3a.88.88 0 0 1 .77 1l-.77 3.08h.17-.17l-1.08 4.31a.6.6 0 0 1 -.76.39s-1.19-.3-1.19-.3l-.82 1.89 2.14.53 1.18.3-.69 2.74 1.65.41.67-2.71c.45.13.89.24 1.31.34l-.67 2.7 1.65.41.68-2.73c2.8.53 4.91.32 5.8-2.22a2.88 2.88 0 0 0 -1.51-4 2.62 2.62 0 0 0 2.1-2.42zm-3.76 5.27c-.51 2.05-3.95.94-5.06.66l.9-3.62c1.12.28 4.69.83 4.16 3zm.51-5.3c-.46 1.86-3.33.91-4.25.68l.82-3.28c.92.23 3.92.66 3.43 2.6z" fill="#d55c0d"/><rect fill="#32302f" height="137.15" rx="2.77" width="6.22" x="207.2" y="2.49"/></svg>